<?xml version="1.0" encoding="utf-8"?>
<!-- Generator: Adobe Illustrator 28.1.0, SVG Export Plug-In . SVG Version: 6.00 Build 0)  -->
<svg version="1.1" id="Layer_1" xmlns="http://www.w3.org/2000/svg" xmlns:xlink="http://www.w3.org/1999/xlink" x="0px" y="0px"
	 viewBox="0 0 256 256" style="enable-background:new 0 0 256 256;" xml:space="preserve">
<style type="text/css">
	.st0{fill:none;}
	.st1{fill:#272727;}
</style>
<rect x="112" y="112" class="st0" width="32" height="32"/>
<path class="st1" d="M143,125c0-2.2-1.8-4-4-4c-1,0-1.9,0.3-2.6,1c-2.1-1.1-4.6-1.8-7.2-1.9l0.6-3.9l2.2,0.3
	c0.3,1.6,1.8,2.8,3.4,2.5c1.6-0.3,2.8-1.8,2.5-3.4c-0.3-1.6-1.8-2.8-3.4-2.5c-0.9,0.2-1.7,0.7-2.1,1.5l-3.2-0.5
	c-0.5-0.1-1,0.3-1.1,0.8l-0.9,5.2c-2.7,0.1-5.3,0.8-7.5,2c-1.7-1.4-4.2-1.2-5.6,0.5c-1.4,1.6-1.2,4,0.3,5.5
	c-0.2,0.7-0.3,1.4-0.3,2.1c0,2.7,1.5,5.3,4.2,7.2c2.6,1.8,6.1,2.8,9.8,2.8s7.1-1,9.8-2.8c2.7-1.9,4.2-4.4,4.2-7.2
	c0-0.7-0.1-1.4-0.3-2.1C142.5,127.2,143,126.1,143,125z M135,115c0.6,0,1,0.4,1,1s-0.4,1-1,1s-1-0.4-1-1S134.4,115,135,115z
	 M121,128c0-1.1,0.9-2,2-2s2,0.9,2,2c0,1.1-0.9,2-2,2S121,129.1,121,128z M132.5,134.9c-2.8,1.5-6.1,1.5-8.9,0
	c-0.5-0.3-0.7-0.9-0.4-1.3c0.3-0.5,0.9-0.7,1.3-0.4c2.2,1.2,4.8,1.2,7.1,0c0.5-0.3,1.1-0.1,1.3,0.4C133.1,134,133,134.6,132.5,134.9
	L132.5,134.9z M133,130c-1.1,0-2-0.9-2-2c0-1.1,0.9-2,2-2s2,0.9,2,2C135,129.1,134.1,130,133,130z"/>
</svg>
